HIERARCHY
ROOT root
{
	OFFSET	0	13.1	24.9
	CHANNELS 6  Xposition Yposition Zposition Xrotation Yrotation Zrotation
	JOINT spine_1
	{
		OFFSET	0	9.99999	0
		CHANNELS 3  Xrotation Yrotation Zrotation
		JOINT spine_2
		{
			OFFSET	0	112	-10
			CHANNELS 3  Xrotation Yrotation Zrotation
			JOINT spine_3
			{
				OFFSET	0	206.5	19.3
				CHANNELS 3  Xrotation Yrotation Zrotation
				JOINT spine_4
				{
					OFFSET	0	110.4	14.6
					CHANNELS 3  Xrotation Yrotation Zrotation
					JOINT neck_1
					{
						OFFSET	0	71.8	-50.3
						CHANNELS 3  Xrotation Yrotation Zrotation
						JOINT neck_2
						{
							OFFSET	0	86.2	-25.8
							CHANNELS 3  Xrotation Yrotation Zrotation
							JOINT head_ee
							{
								OFFSET	0	179.8	-8.7
								CHANNELS 3  Xrotation Yrotation Zrotation
								End Site
								{
									OFFSET	1	0	0
								}
							}
						}
					}
					JOINT left_clavicle
					{
						OFFSET	-43.2	22.4	-70.8
						CHANNELS 3  Xrotation Yrotation Zrotation
						JOINT left_shoulder
						{
							OFFSET	-93.9	-5.79999	48.7
							CHANNELS 3  Xrotation Yrotation Zrotation
							JOINT left_elbow
							{
								OFFSET	-291.4	-30.8	15.2
								CHANNELS 3  Xrotation Yrotation Zrotation
								JOINT left_lowarm_twist
								{
									OFFSET	-110.7	-3.89999	13.6
									CHANNELS 3  Xrotation Yrotation Zrotation
									JOINT left_hand
									{
										OFFSET	-110.7	-3.89999	13.6
										CHANNELS 3  Xrotation Yrotation Zrotation
										JOINT left_ee
										{
											OFFSET	-80.8	-5.10001	12.1
											CHANNELS 3  Xrotation Yrotation Zrotation
											End Site
											{
												OFFSET	1	0	0
											}
										}
									}
								}
							}
						}
					}
					JOINT right_clavicle
					{
						OFFSET	43.2	22.4	-70.8
						CHANNELS 3  Xrotation Yrotation Zrotation
						JOINT right_shoulder
						{
							OFFSET	93.9	-5.79999	48.7
							CHANNELS 3  Xrotation Yrotation Zrotation
							JOINT right_elbow
							{
								OFFSET	291.4	-30.8	15.2
								CHANNELS 3  Xrotation Yrotation Zrotation
								JOINT right_lowarm_twist
								{
									OFFSET	110.7	-3.89999	13.6
									CHANNELS 3  Xrotation Yrotation Zrotation
									JOINT right_hand
									{
										OFFSET	110.7	-3.89999	13.6
										CHANNELS 3  Xrotation Yrotation Zrotation
										JOINT right_ee
										{
											OFFSET	80.8	-5.10001	12.1
											CHANNELS 3  Xrotation Yrotation Zrotation
											End Site
											{
												OFFSET	1	0	0
											}
										}
									}
								}
							}
						}
					}
				}
			}
		}
	}
	JOINT left_hip
	{
		OFFSET	-82.8	-127.5	0.300001
		CHANNELS 3  Xrotation Yrotation Zrotation
		JOINT left_knee
		{
			OFFSET	-28.2	-396.7	2.2
			CHANNELS 3  Xrotation Yrotation Zrotation
			JOINT left_ankle
			{
				OFFSET	-11.7	-411.3	35.4
				CHANNELS 3  Xrotation Yrotation Zrotation
				JOINT left_toes
				{
					OFFSET	0	-60	-88.6
					CHANNELS 3  Xrotation Yrotation Zrotation
					JOINT left_foot_ee
					{
						OFFSET	-22.5	-16.5	-42.2
						CHANNELS 3  Xrotation Yrotation Zrotation
						End Site
						{
							OFFSET	1	0	0
						}
					}
				}
			}
		}
	}
	JOINT right_hip
	{
		OFFSET	82.8	-127.5	0.300001
		CHANNELS 3  Xrotation Yrotation Zrotation
		JOINT right_knee
		{
			OFFSET	28.2	-396.7	2.2
			CHANNELS 3  Xrotation Yrotation Zrotation
			JOINT right_ankle
			{
				OFFSET	11.7	-411.3	35.4
				CHANNELS 3  Xrotation Yrotation Zrotation
				JOINT right_toes
				{
					OFFSET	0	-60	-88.6
					CHANNELS 3  Xrotation Yrotation Zrotation
					JOINT right_foot_ee
					{
						OFFSET	22.5	-16.5	-42.2
						CHANNELS 3  Xrotation Yrotation Zrotation
						End Site
						{
							OFFSET	1	0	0
						}
					}
				}
			}
		}
	}
}
MOTION
Frames: 13
Frame Time: 0.02
3381.6 734.281 -1462.96 16.6646 69.1864 -22.3005 -3.61007 0.599603 1.51631 -3.60893 0.501913 1.55138 -3.59298 0.0627413 1.62932 -3.59655 0.319242 1.59898 -16.3693 19.3105 5.31034 -17.6469 34.0794 12.3782 -0.0 0.0 -0.0 4.38914 18.794 8.81945 -19.9924 -17.4679 65.0667 1.68902 -39.9157 0.613386 -8.95369 -0.400132 1.07132 -1.72249 23.8271 -0.377357 -0.0 0.0 -0.0 14.3893 27.2329 -28.7558 -2.07139 21.1788 -53.1585 0.285125 8.03959 -0.0200369 51.8821 1.10682 6.31092 -1.21392 -23.6732 -2.45627 0.0 0.0 0.0 3.59244 17.2353 3.57363 -43.2222 -0.684383 6.44337 12.2894 27.9139 -1.84565 33.2089 -0.0 -0.0 -0.0 0.0 -0.0 3.49445 -17.3325 14.7001 -32.5808 0.0634083 -4.93287 17.5262 30.5227 3.06159 21.7824 -0.0 -0.0 0.0 0.0 0.0 
3371.71 732.843 -1467.32 17.4217 70.2015 -23.0605 -3.49547 0.613568 1.45175 -3.49445 0.519956 1.48784 -3.47879 0.100469 1.57286 -3.48207 0.347583 1.53727 -16.3375 19.3366 6.42079 -17.5098 33.506 13.3604 -0.0 0.0 -0.0 4.02453 19.9578 8.26589 -21.0221 -16.7361 65.44 1.71743 -40.3865 0.631705 -9.84243 -0.448896 1.17401 -1.79143 23.7537 -0.805233 -0.0 0.0 -0.0 14.3204 27.1527 -28.6052 -2.61101 21.1071 -53.8407 0.377054 10.5801 -0.0349122 51.8803 1.10668 6.31073 -1.1063 -23.932 -3.18331 0.0 0.0 0.0 4.4789 16.3454 3.07305 -45.6484 -0.864644 6.7702 12.3472 27.8955 -1.85375 34.8272 -0.0 -0.0 -0.0 0.0 -0.0 2.69736 -16.789 14.3864 -32.9541 0.080375 -4.98764 18.919 29.7728 3.24682 22.2861 -0.0 -0.0 0.0 0.0 0.0 
3362.33 730.14 -1469.14 16.6282 69.7021 -21.8896 -3.15958 0.873332 1.19639 -3.15914 0.795439 1.24953 -3.14024 0.43837 1.41485 -3.14243 0.656299 1.32789 -16.1343 19.4069 6.35892 -17.2925 33.6413 13.263 -0.0 0.0 -0.0 3.73087 19.8734 7.82807 -22.7001 -16.6924 66.2849 1.6437 -39.1508 0.584536 -9.97019 -0.456037 1.18871 -1.76343 23.5724 -0.7309 -0.0 0.0 -0.0 14.2558 27.3839 -28.4222 -1.57001 21.825 -53.4426 0.371328 10.423 -0.0338686 51.7705 1.09845 6.29932 -1.41312 -24.877 -1.85771 0.0 0.0 0.0 5.38402 16.1887 2.46035 -47.6734 -1.02563 7.03703 12.3393 27.606 -1.84922 34.8564 -0.0 -0.0 -0.0 0.0 -0.0 2.3615 -17.6308 14.6122 -32.4812 0.0589419 -4.91824 20.9567 30.096 3.56928 21.7845 -0.0 -0.0 0.0 0.0 0.0 
3353.95 729.275 -1464.95 13.7572 70.2496 -19.0036 -2.5429 0.690238 1.05677 -2.5425 0.621598 1.09854 -2.52952 0.323391 1.22007 -2.53123 0.512006 1.1537 -16.3053 18.5367 6.5191 -17.3291 31.9045 13.0753 -0.0 0.0 -0.0 3.76505 21.2138 7.88712 -25.3164 -16.0855 67.7208 1.5958 -38.324 0.554561 -10.7504 -0.500358 1.27814 -2.10114 23.4775 -2.70997 -0.0 0.0 -0.0 14.0445 27.6329 -27.8945 0.399217 22.9592 -53.9548 0.375939 10.5495 -0.0347078 51.144 1.05192 6.23396 -0.536294 -23.7548 -6.37447 0.0 0.0 0.0 7.18484 16.9276 1.87569 -47.8192 -1.03758 7.05602 9.30536 26.691 -1.40009 33.7699 -0.0 -0.0 -0.0 0.0 -0.0 1.83299 -22.2554 14.5569 -25.0637 -0.201275 -3.8104 17.9233 30.6279 3.12854 18.493 -0.0 -0.0 0.0 0.0 0.0 
3347.11 734.366 -1468.46 13.3193 69.8584 -18.3479 -2.45778 0.65429 0.971846 -2.45745 0.591126 1.01151 -2.44612 0.317565 1.1277 -2.44756 0.491669 1.0634 -17.6597 18.0453 6.50939 -18.7902 31.1833 13.3055 -0.0 0.0 -0.0 3.81498 21.4561 7.96031 -26.4533 -14.5759 67.9875 1.49352 -36.4935 0.492421 -10.9202 -0.510167 1.29753 -2.21435 23.6307 -3.28242 -0.0 0.0 -0.0 14.3543 27.725 -28.6058 2.85976 24.634 -54.395 0.300083 8.45541 -0.0221826 49.2724 0.917214 6.03576 -0.349918 -16.5264 -4.58481 0.0 0.0 0.0 10.9099 16.8447 -0.134498 -50.9186 -1.30311 7.45252 2.59635 27.0745 -0.398684 35.4974 -0.0 -0.0 -0.0 0.0 -0.0 0.147602 -22.5884 14.2504 -22.714 -0.25354 -3.45364 23.3889 31.8088 4.01581 13.9466 -0.0 -0.0 0.0 0.0 0.0 
3336.18 734.423 -1469.16 14.1937 68.7807 -18.651 -2.41081 0.736432 0.762979 -2.41075 0.686391 0.808292 -2.40051 0.461669 0.95463 -2.40127 0.606636 0.869746 -18.3165 17.9004 7.13018 -19.4493 30.6776 14.007 -0.0 0.0 -0.0 3.74487 22.7167 7.86267 -27.565 -14.0439 68.6662 1.36599 -34.0832 0.418727 -9.93566 -0.454104 1.18474 -2.19494 23.5391 -3.21705 -0.0 0.0 -0.0 14.3606 27.6473 -28.6314 4.29501 26.0088 -54.6136 0.313478 8.82703 -0.0241953 50.1689 0.980931 6.13125 0.0723419 -15.1885 -6.66526 0.0 0.0 0.0 14.3276 13.959 -1.79474 -50.6616 -1.28028 7.4202 3.81234 26.8292 -0.582829 32.1665 -0.0 -0.0 -0.0 0.0 -0.0 -0.59441 -25.7363 14.0729 -19.7618 -0.298396 -3.00292 21.5919 30.9054 3.7031 15.5383 -0.0 -0.0 0.0 0.0 0.0 
3330.51 732.447 -1472.47 12.4999 69.1662 -16.5823 -2.2019 0.603682 0.580025 -2.20189 0.56555 0.617263 -2.19548 0.395238 0.738 -2.19589 0.506829 0.666321 -18.5707 17.8504 7.07992 -19.7335 30.6474 14.0247 -0.0 0.0 -0.0 3.71667 21.9486 7.82051 -28.6232 -12.7215 69.2128 1.28182 -32.4131 0.372577 -10.5576 -0.489291 1.2561 -2.2084 23.4238 -3.35191 -0.0 0.0 -0.0 14.4117 27.8595 -28.7212 6.78062 27.3472 -54.9277 0.306125 8.62312 -0.0230798 47.859 0.819838 5.88326 0.3667 -13.6537 -7.92055 0.0 0.0 0.0 16.826 12.9782 -2.89547 -49.6328 -1.19034 7.28976 3.17545 26.3901 -0.484992 31.5247 -0.0 -0.0 -0.0 0.0 -0.0 -1.95436 -25.6083 13.4103 -17.5581 -0.316713 -2.6653 22.8841 31.9057 3.94709 14.5062 -0.0 -0.0 0.0 0.0 0.0 
3320.86 729.682 -1472.4 13.0281 68.7599 -17.1805 -2.23228 0.708817 0.676688 -2.23227 0.664322 0.720419 -2.22349 0.46501 0.862605 -2.22403 0.595402 0.778346 -20.7967 16.7775 7.66923 -21.9717 28.612 14.7334 -0.0 0.0 -0.0 3.7533 22.6799 7.8745 -29.4773 -12.3199 69.3659 1.16308 -29.9477 0.311088 -11.0795 -0.519418 1.31568 -1.96175 21.4627 -2.8883 -0.0 0.0 -0.0 14.5924 27.9043 -29.1387 8.81464 28.4858 -55.4171 0.346046 9.72737 -0.0294458 48.3896 0.855952 5.94079 0.800184 -12.9547 -10.4165 0.0 0.0 0.0 18.9217 11.2386 -4.74981 -33.8404 -0.122087 5.11722 -3.15918 27.2837 0.491672 26.3471 -0.0 -0.0 -0.0 0.0 -0.0 -1.8664 -27.8917 13.2248 -17.3391 -0.317824 -2.63173 25.9531 30.7023 4.31674 12.4353 -0.0 -0.0 0.0 0.0 0.0 
3314.24 730.301 -1476.05 14.0324 69.1648 -17.7089 -2.1967 0.660271 0.691117 -2.19664 0.614956 0.731729 -2.18835 0.414904 0.861073 -2.18897 0.545683 0.784746 -19.8291 16.6119 7.00339 -20.9235 28.4824 13.7518 -0.0 0.0 -0.0 3.45031 22.9396 7.45018 -30.1416 -12.1372 69.7187 1.07119 -27.9513 0.266602 -11.7798 -0.560698 1.39521 -1.88919 20.5676 -2.89419 -0.0 0.0 -0.0 14.2401 26.602 -28.4897 9.90129 29.9097 -56.2073 0.478132 13.3253 -0.0558518 48.8752 0.88947 5.99315 1.51506 -12.5227 -14.8923 0.0 0.0 0.0 18.4452 9.85608 -5.32238 -28.2839 0.105962 4.29535 -8.29702 27.9993 1.30777 23.1084 -0.0 -0.0 -0.0 0.0 -0.0 -2.53497 -28.5012 13.0005 -18.1094 -0.313349 -2.74984 26.9699 29.8177 4.40437 11.5332 -0.0 -0.0 0.0 0.0 0.0 
3308.84 732.248 -1479.23 13.9184 69.7812 -17.1043 -2.22882 0.649856 0.735636 -2.22872 0.60173 0.775495 -2.22007 0.390767 0.900424 -2.22081 0.528064 0.827416 -20.8891 15.9528 7.17947 -21.9601 27.2693 13.898 -0.0 0.0 -0.0 3.67124 22.9655 7.75975 -30.9493 -11.7198 69.568 0.964976 -25.5483 0.218785 -12.0755 -0.578417 1.42864 -1.75355 19.5414 -2.5792 -0.0 0.0 -0.0 14.1559 26.5645 -28.297 10.9576 29.8271 -55.9583 0.613106 16.8944 -0.0910528 49.7008 0.947473 6.08151 1.76608 -12.009 -16.3699 0.0 0.0 0.0 18.8017 8.59084 -6.11776 -19.2198 0.304106 2.91995 -11.5364 28.3983 1.83032 20.919 -0.0 -0.0 -0.0 0.0 -0.0 -3.13815 -28.9246 12.5707 -18.7545 -0.308381 -2.84868 29.951 29.3275 4.76057 10.4919 -0.0 -0.0 0.0 0.0 0.0 
3302.62 732.246 -1480.04 13.763 70.4173 -16.7627 -2.23819 0.618102 0.645006 -2.23814 0.575807 0.683029 -2.23089 0.38841 0.804496 -2.23143 0.510588 0.733063 -20.8507 15.9893 7.01279 -21.9406 27.415 13.7581 -0.0 0.0 -0.0 3.72902 23.0029 7.84077 -31.2122 -11.623 69.6411 0.921141 -24.5272 0.200232 -12.3362 -0.594187 1.45804 -1.64423 17.9426 -2.67567 -0.0 0.0 -0.0 14.0248 26.2178 -28.0341 11.7698 30.3434 -56.4062 0.762076 20.682 -0.139058 51.0111 1.04214 6.22004 2.26549 -9.61272 -18.9072 0.0 0.0 0.0 18.146 7.68569 -6.29531 -13.8485 0.318192 2.09625 -11.468 28.6794 1.82254 19.7975 -0.0 -0.0 -0.0 0.0 -0.0 -3.20609 -29.1917 12.1124 -18.7724 -0.308227 -2.85142 31.5985 28.8508 4.9334 10.1595 -0.0 -0.0 0.0 0.0 0.0 
3294.91 728.771 -1482.52 13.75 70.5544 -16.6554 -2.09807 0.654946 0.71402 -2.098 0.608185 0.754248 -2.08953 0.404294 0.880521 -2.09021 0.538278 0.805626 -20.9162 15.5572 6.97115 -21.9349 26.6097 13.5165 -0.0 0.0 -0.0 3.68485 22.7122 7.7781 -31.5219 -11.5133 69.4637 0.872763 -23.3806 0.180589 -12.4137 -0.598903 1.46677 -1.58452 18.1797 -2.20416 -0.0 0.0 -0.0 14.0469 26.1254 -28.0975 12.8321 30.8525 -57.1693 0.832085 22.4008 -0.164766 50.8811 1.0326 6.20638 2.41196 -10.6343 -20.2584 0.0 0.0 0.0 18.1146 6.90856 -6.74793 -9.66597 0.275701 1.45605 -14.9852 28.8387 2.3921 18.3772 -0.0 -0.0 -0.0 0.0 -0.0 -3.78887 -29.4196 12.1005 -19.0614 -0.305626 -2.89569 33.073 28.4396 5.08163 9.96087 -0.0 -0.0 0.0 0.0 0.0 
3287.31 726.501 -1485.68 13.7778 70.7538 -16.5289 -2.01145 0.658613 0.718631 -2.01137 0.611552 0.759082 -2.00281 0.407712 0.885417 -2.00349 0.542426 0.809922 -20.898 15.4597 6.86181 -21.907 26.4719 13.3639 -0.0 0.0 -0.0 3.56502 22.5153 7.60801 -32.0947 -11.3052 69.1165 0.83623 -22.5013 0.166349 -12.5 -0.604164 1.47647 -1.52175 17.7903 -2.00516 -0.0 0.0 -0.0 14.0679 26.1197 -28.1472 13.9237 31.437 -57.5965 0.915602 24.3969 -0.197938 51.2739 1.06151 6.24756 2.60306 -10.1603 -21.4175 0.0 0.0 0.0 18.2359 6.22772 -7.05783 -6.2467 0.206331 0.936007 -15.9609 28.8746 2.5504 17.6444 -0.0 -0.0 -0.0 0.0 -0.0 -4.25852 -29.5862 12.0704 -19.3017 -0.303293 -2.93249 33.7091 28.2129 5.14049 9.6709 -0.0 -0.0 0.0 0.0 0.0 
